:SAMPLES-PER-SECOND 30
:FULLY-SPECIFIED
:DEGREES
1119
root  -20.9234 38.6717 -5.3961 58.6285 -87.1185 -65.2647
RightUpLeg  -15.3231 -8.75794 3.04933
RightLeg  14.216 -3.32606 1.22679
RightFoot  4.83509 0.522157 -3.44934
RightToes  9.54606e-009 0 -3.6325e-017
Spine  4.73801 -1.51035 4.9195
Spine1  10.9057 -2.76961 5.10744
HEad  -27.5907 -4.74565 -0.572067
LeftShoulder1  -0.282308 4.28613 -29.9321
LeftArm  17.4617 -17.446 -52.7845
LeftForeArm  17.4522 -17.7053 -6.9239
LeftHand  0.00781144 8.038 2.17425
RightShoulder  -0.769738 -5.74938 27.6548
RightArm  12.5984 0.687258 45.7512
RightForeArm  18.9164 9.67732 6.3129
RightHand  -0.0911609 4.37087 -1.36922
LeftUpLeg  15.538 3.79369 1.42053
LeftLeg  20.8449 4.79716 2.31801
LeftFoot  -19.8232 -0.165185 -3.88341
LeftToes  -8.26734e-010 9.74065e-011 1.64617e-011
1120
root  -21.8959 38.7029 -5.48682 74.0964 -86.5602 -80.825
RightUpLeg  -14.6701 -8.2634 3.90225
RightLeg  16.2646 -3.61311 1.24734
RightFoot  3.02428 0.526255 -4.01017
RightToes  9.54606e-009 0 -3.6325e-017
Spine  5.39608 -1.55981 6.60572
Spine1  11.5884 -2.52939 5.57061
HEad  -28.4753 -3.50798 2.14056
LeftShoulder1  -0.318187 4.38187 -30.099
LeftArm  8.89405 -13.3215 -51.8377
LeftForeArm  25.0707 -12.5748 -9.40767
LeftHand  -0.0105724 9.19215 1.11051
RightShoulder  -0.737375 -5.65995 27.5324
RightArm  10.9912 4.80206 47.4226
RightForeArm  19.9904 8.11719 6.1277
RightHand  -0.0761845 3.6408 -1.22969
LeftUpLeg  13.4356 3.92113 3.12571
LeftLeg  27.8451 2.57058 1.76562
LeftFoot  -17.0337 -0.349484 -9.34899
LeftToes  -8.26734e-010 9.74065e-011 1.64617e-011
1121
root  -22.765 38.683 -5.60334 74.7975 -85.9887 -81.1177
RightUpLeg  -14.7493 -8.52169 4.58723
RightLeg  18.4005 -3.83887 1.20215
RightFoot  1.07107 0.505221 -4.57429
RightToes  9.54606e-009 0 -3.6325e-017
Spine  6.47485 -1.60084 8.33144
Spine1  11.1116 -2.03384 5.38954
HEad  -29.764 -3.36351 5.53107
LeftShoulder1  -0.255526 4.2094 -30.0622
LeftArm  3.11468 -8.74241 -50.6207
LeftForeArm  31.7698 -8.71546 -10.3405
LeftHand  -0.0616725 9.34388 -0.225445
RightShoulder  -0.627491 -5.39389 26.4937
RightArm  10.1629 7.27813 49.6621
RightForeArm  18.8638 7.99564 5.92352
RightHand  -0.112029 4.36084 -1.61718
LeftUpLeg  8.79207 3.76149 4.81929
LeftLeg  37.2776 0.00184513 0.381457
LeftFoot  -11.2831 0.0697969 -13.3253
LeftToes  -8.26734e-010 9.74065e-011 1.64617e-011
1122
root  -23.6452 38.6827 -5.70947 78.1012 -85.4648 -84.1249
RightUpLeg  -14.2155 -8.73752 5.08134
RightLeg  19.7845 -3.47058 1.53513
RightFoot  -0.980938 0.435968 -4.86624
RightToes  9.54606e-009 0 -3.6325e-017
Spine  7.30117 -1.33483 10.9502
Spine1  10.675 -0.82211 3.63252
HEad  -32.1304 -3.24396 7.77629
LeftShoulder1  -0.157139 3.93964 -29.9616
LeftArm  0.734686 -4.21026 -49.0446
LeftForeArm  37.0891 -7.08853 -10.3794
LeftHand  -0.155766 10.187 -2.33219
RightShoulder  -0.594693 -5.31087 26.176
RightArm  10.8689 9.12745 50.9588
RightForeArm  17.1955 9.63193 5.96878
RightHand  -0.12388 4.35835 -1.75624
LeftUpLeg  3.36579 3.55873 6.17249
LeftLeg  46.8349 -0.736829 -0.404566
LeftFoot  -1.53521 0.979543 -11.9666
LeftToes  -8.26734e-010 9.74065e-011 1.64617e-011
1123
root  -24.5169 38.6543 -5.77544 86.5011 -84.8549 -92.5984
RightUpLeg  -13.2458 -8.36481 5.76758
RightLeg  21.027 -3.16003 1.58254
RightFoot  -3.12593 0.318035 -4.72012
RightToes  9.54606e-009 0 -3.6325e-017
Spine  8.03008 -0.86428 13.7783
Spine1  10.7631 0.570531 2.03978
HEad  -33.6025 -3.35484 9.11549
LeftShoulder1  -0.125806 3.8463 -30.4587
LeftArm  -0.156151 0.384049 -47.0172
LeftForeArm  39.841 -6.62808 -10.3439
LeftHand  -0.205797 10.727 -3.06969
RightShoulder  -0.619849 -5.39309 26.0876
RightArm  13.3292 11.4261 51.5535
RightForeArm  14.588 11.962 6.11236
RightHand  -0.157657 4.54042 -2.13841
LeftUpLeg  -1.3897 3.42976 7.29603
LeftLeg  54.5946 -0.843564 -0.804721
LeftFoot  6.83189 1.26702 -7.98576
LeftToes  -8.26734e-010 9.74065e-011 1.64617e-011
1124
root  -25.3836 38.7284 -5.83794 88.4915 -84.7694 -94.8099
RightUpLeg  -11.6306 -8.09101 5.75804
RightLeg  21.3773 -3.06645 1.53701
RightFoot  -4.8503 0.224685 -4.52785
RightToes  9.54606e-009 0 -3.6325e-017
Spine  8.60097 -0.726401 14.5339
Spine1  10.8136 1.00507 1.88062
HEad  -34.5097 -3.16786 8.46709
LeftShoulder1  -0.233926 4.13031 -31.2616
LeftArm  -0.308166 5.14567 -44.5253
LeftForeArm  39.3037 -6.6773 -10.305
LeftHand  -0.231139 10.8999 -3.44235
RightShoulder  -0.590202 -5.3057 26.0098
RightArm  16.5059 14.5687 52.0978
RightForeArm  13.3367 13.7228 6.19366
RightHand  -0.148892 5.56265 -1.89206
LeftUpLeg  -5.20309 2.93286 7.77719
LeftLeg  59.6967 -1.29485 -1.86493
LeftFoot  5.9504 1.11707 -7.5595
LeftToes  -8.26734e-010 9.74065e-011 1.64617e-011
1125
root  -26.2765 38.8532 -5.88343 87.346 -85.2072 -93.597
RightUpLeg  -10.1146 -7.86173 5.2576
RightLeg  21.3606 -3.22567 1.27233
RightFoot  -6.41788 0.132951 -4.1005
RightToes  9.54606e-009 0 -3.6325e-017
Spine  8.55893 -0.730356 14.949
Spine1  10.5564 1.27423 1.1246
HEad  -34.3394 -3.02921 7.74022
LeftShoulder1  -0.306641 4.32034 -31.3496
LeftArm  -1.06799 10.2281 -42.4187
LeftForeArm  38.6314 -6.75617 -9.98975
LeftHand  -0.255799 11.2661 -3.612
RightShoulder  -0.654316 -5.49217 26.2151
RightArm  19.1121 17.2934 52.915
RightForeArm  12.3438 15.0989 6.08557
RightHand  -0.147152 5.8478 -1.84775
LeftUpLeg  -9.04238 1.97215 7.48224
LeftLeg  62.2119 -1.82798 -3.16566
LeftFoot  4.31282 0.865815 -6.50294
LeftToes  -8.26734e-010 9.74065e-011 1.64617e-011
1126
root  -27.1795 39.0039 -5.90619 92.3057 -85.9391 -98.2885
RightUpLeg  -8.66488 -7.81563 4.50713
RightLeg  21.0045 -2.75145 1.13356
RightFoot  -7.71346 0.0696969 -3.85326
RightToes  9.54606e-009 0 -3.6325e-017
Spine  8.28444 -0.339341 15.1312
Spine1  10.1001 1.84747 0.269684
HEad  -33.3055 -3.51009 7.21553
LeftShoulder1  -0.445492 4.67581 -31.8792
LeftArm  -2.0127 14.0774 -40.2444
LeftForeArm  37.9297 -6.32204 -9.63877
LeftHand  -0.162613 10.5705 -2.24751
RightShoulder  -0.688112 -5.59924 26.1571
RightArm  20.0851 18.7697 53.5844
RightForeArm  11.4852 16.7162 5.553
RightHand  -0.122438 6.13977 -1.56573
LeftUpLeg  -12.4254 1.23715 6.62233
LeftLeg  62.0978 -1.61176 -2.73245
LeftFoot  2.99704 0.784551 -6.36198
LeftToes  -8.26734e-010 9.74065e-011 1.64617e-011
